<?xml version="1.0" standalone="no"?>
<!DOCTYPE svg PUBLIC "-//W3C//DTD SVG 1.1//EN" "http://www.w3.org/Graphics/SVG/1.1/DTD/svg11.dtd">
<svg width="100%" height="100%" viewBox="0 0 2363 400" version="1.1" xmlns="http://www.w3.org/2000/svg" xmlns:xlink="http://www.w3.org/1999/xlink" xml:space="preserve" style="fill-rule:evenodd;clip-rule:evenodd;stroke-linejoin:round;stroke-miterlimit:1.41421;">
    <g transform="matrix(1.88324,0,0,1.88324,-943.939,-421.806)">
        <path d="M574.131,226.379L507.531,226.379C503.631,226.379 501.231,229.079 501.231,231.779L501.231,265.679C504.831,271.979 509.631,278.879 513.231,285.179C518.631,293.279 523.431,301.379 528.831,309.479L507.531,309.479C503.631,309.479 501.231,312.179 501.231,314.879L501.231,431.279C501.231,433.679 503.631,436.379 507.531,436.379L540.831,436.379C544.431,436.379 547.131,433.679 547.131,431.279L547.131,353.279L574.131,353.279C574.131,353.279 646.731,353.279 646.731,289.679C646.731,226.379 574.131,226.379 574.131,226.379ZM574.131,270.179C579.531,270.179 600.831,270.179 600.831,289.679C600.831,302.579 587.631,307.979 578.631,309.179L554.031,270.179L574.131,270.179Z" style="fill:url(#_Linear1);fill-rule:nonzero;"/>
        <path d="M799.431,226.379C795.831,226.379 793.131,229.079 793.131,231.779L793.131,309.179L722.931,309.179L722.931,231.779C722.931,229.079 720.231,226.379 716.331,226.379L683.031,226.379C679.431,226.379 676.731,229.079 676.731,231.779L676.731,431.279C676.731,433.679 679.431,436.379 683.031,436.379L716.331,436.379C720.231,436.379 722.931,433.679 722.931,431.279L722.931,353.279L793.131,353.279L793.131,431.279C793.131,433.679 795.831,436.379 799.431,436.379L832.731,436.379C836.631,436.379 839.331,433.679 839.331,431.279L839.331,231.779C839.331,229.079 836.631,226.379 832.731,226.379L799.431,226.379Z" style="fill:url(#_Linear2);fill-rule:nonzero;"/>
        <path d="M956.031,381.179C1000.13,381.179 1036.43,346.379 1036.43,302.879C1036.43,259.679 1000.13,223.979 956.031,223.979C911.631,223.979 875.331,259.679 875.331,302.879C875.331,346.379 911.631,381.179 956.031,381.179ZM956.031,267.479C975.231,267.479 990.531,283.079 990.531,302.879C990.531,322.979 975.231,337.679 956.031,337.679C936.831,337.679 921.231,322.979 921.231,302.879C921.231,283.079 936.831,267.479 956.031,267.479ZM1027.43,398.279C1027.43,395.579 1024.73,392.879 1020.83,392.879L889.431,392.879C885.531,392.879 883.131,395.579 883.131,398.279L883.131,431.279C883.131,433.679 885.531,436.379 889.431,436.379L1020.83,436.379C1024.73,436.379 1027.43,433.679 1027.43,431.279L1027.43,398.279Z" style="fill:url(#_Linear3);fill-rule:nonzero;"/>
        <path d="M1210.13,269.279C1213.73,269.279 1216.43,266.579 1216.43,263.879L1216.43,231.779C1216.43,229.079 1213.73,226.379 1210.13,226.379L1079.63,226.379C1075.73,226.379 1073.33,229.079 1073.33,231.779L1073.33,431.279C1073.33,433.679 1075.73,436.379 1079.63,436.379L1212.53,436.379C1216.43,436.379 1219.13,433.679 1219.13,431.279L1219.13,397.979C1219.13,395.279 1216.43,392.579 1212.53,392.579L1119.23,392.579L1119.23,352.379L1196.03,352.379C1199.63,352.379 1202.03,349.679 1202.03,347.279L1202.03,314.879C1202.03,312.179 1199.63,309.479 1196.03,309.479L1119.23,309.479L1119.23,269.279L1210.13,269.279Z" style="fill:url(#_Linear4);fill-rule:nonzero;"/>
        <path d="M1428.83,231.779C1428.83,229.079 1426.43,226.379 1422.53,226.379L1389.53,226.379C1385.63,226.379 1383.23,229.079 1383.23,231.779L1383.23,353.579C1352.93,310.079 1325.33,271.679 1295.33,228.479C1294.13,226.979 1291.43,226.379 1290.23,226.379L1256.33,226.379C1252.73,226.379 1250.03,229.079 1250.03,231.779L1250.03,431.279C1250.03,433.679 1252.73,436.379 1256.33,436.379L1289.93,436.379C1293.53,436.379 1296.23,433.679 1296.23,431.279L1296.23,308.879C1327.13,352.979 1353.23,390.479 1383.83,434.279C1385.03,435.779 1387.73,436.379 1388.93,436.379L1422.53,436.379C1426.43,436.379 1428.83,433.679 1428.83,431.279L1428.83,231.779Z" style="fill:url(#_Linear5);fill-rule:nonzero;"/>
        <path d="M1543.43,267.179C1547.33,267.179 1549.73,264.479 1549.73,262.079L1549.73,231.779C1549.73,229.079 1547.33,226.379 1543.43,226.379L1465.43,226.379C1461.83,226.379 1459.13,229.079 1459.13,231.779L1459.13,262.079C1459.13,264.479 1461.83,267.179 1465.43,267.179L1481.63,267.179L1481.63,395.579L1464.23,395.579C1460.63,395.579 1457.93,398.279 1457.93,400.679L1457.93,431.279C1457.93,433.679 1460.63,436.379 1464.23,436.379L1544.63,436.379C1548.23,436.379 1550.93,433.679 1550.93,431.279L1550.93,400.679C1550.93,398.279 1548.23,395.579 1544.63,395.579L1527.53,395.579L1527.53,267.179L1543.43,267.179Z" style="fill:url(#_Linear6);fill-rule:nonzero;"/>
        <path d="M1561.13,427.979L1561.43,427.979C1558.13,431.579 1560.83,436.379 1565.93,436.379L1606.73,436.379C1607.93,436.379 1610.93,435.479 1612.13,434.279L1657.73,370.379L1703.33,434.279C1704.53,435.779 1707.53,436.379 1708.73,436.379L1749.53,436.379C1754.93,436.379 1757.63,431.579 1754.33,427.979L1754.63,427.979C1744.73,414.479 1734.83,399.779 1724.93,386.279C1712.03,368.279 1698.53,349.079 1685.63,331.379L1754.63,234.779L1754.33,234.779C1757.63,231.179 1754.93,226.379 1749.53,226.379L1708.73,226.379C1707.83,226.379 1704.53,227.279 1703.33,228.479L1657.73,292.379L1612.13,228.479C1610.93,226.979 1608.23,226.379 1606.73,226.379L1565.93,226.379C1560.83,226.379 1558.13,231.179 1561.43,234.779L1561.13,234.779L1595.93,284.279C1607.03,299.879 1618.43,316.079 1629.53,331.379L1561.13,427.979Z" style="fill:url(#_Linear7);fill-rule:nonzero;"/>
    </g>
    <defs>
        <linearGradient id="_Linear1" x1="0" y1="0" x2="1" y2="0" gradientUnits="userSpaceOnUse" gradientTransform="matrix(1254.54,0,0,212.4,501.231,330.179)"><stop offset="0%" style="stop-color:rgb(252,74,26);stop-opacity:1"/><stop offset="100%" style="stop-color:rgb(247,183,51);stop-opacity:1"/></linearGradient>
        <linearGradient id="_Linear2" x1="0" y1="0" x2="1" y2="0" gradientUnits="userSpaceOnUse" gradientTransform="matrix(1254.54,0,0,212.4,501.231,330.179)"><stop offset="0%" style="stop-color:rgb(252,74,26);stop-opacity:1"/><stop offset="100%" style="stop-color:rgb(247,183,51);stop-opacity:1"/></linearGradient>
        <linearGradient id="_Linear3" x1="0" y1="0" x2="1" y2="0" gradientUnits="userSpaceOnUse" gradientTransform="matrix(1254.54,0,0,212.4,501.231,330.179)"><stop offset="0%" style="stop-color:rgb(252,74,26);stop-opacity:1"/><stop offset="100%" style="stop-color:rgb(247,183,51);stop-opacity:1"/></linearGradient>
        <linearGradient id="_Linear4" x1="0" y1="0" x2="1" y2="0" gradientUnits="userSpaceOnUse" gradientTransform="matrix(1254.54,0,0,212.4,501.231,330.179)"><stop offset="0%" style="stop-color:rgb(252,74,26);stop-opacity:1"/><stop offset="100%" style="stop-color:rgb(247,183,51);stop-opacity:1"/></linearGradient>
        <linearGradient id="_Linear5" x1="0" y1="0" x2="1" y2="0" gradientUnits="userSpaceOnUse" gradientTransform="matrix(1254.54,0,0,212.4,501.231,330.179)"><stop offset="0%" style="stop-color:rgb(252,74,26);stop-opacity:1"/><stop offset="100%" style="stop-color:rgb(247,183,51);stop-opacity:1"/></linearGradient>
        <linearGradient id="_Linear6" x1="0" y1="0" x2="1" y2="0" gradientUnits="userSpaceOnUse" gradientTransform="matrix(1254.54,0,0,212.4,501.231,330.179)"><stop offset="0%" style="stop-color:rgb(252,74,26);stop-opacity:1"/><stop offset="100%" style="stop-color:rgb(247,183,51);stop-opacity:1"/></linearGradient>
        <linearGradient id="_Linear7" x1="0" y1="0" x2="1" y2="0" gradientUnits="userSpaceOnUse" gradientTransform="matrix(1254.54,0,0,212.4,501.231,330.179)"><stop offset="0%" style="stop-color:rgb(252,74,26);stop-opacity:1"/><stop offset="100%" style="stop-color:rgb(247,183,51);stop-opacity:1"/></linearGradient>
    </defs>
</svg>
